<svg width="780" height="274" viewBox="0 0 780 274" fill="none" xmlns="http://www.w3.org/2000/svg">
<path fill-rule="evenodd" clip-rule="evenodd" d="M390 144C429.765 144 462 111.765 462 72C462 32.2355 429.765 0 390 0C350.235 0 318 32.2355 318 72C318 111.765 350.235 144 390 144Z" fill="url(#paint0_linear_2512_1268)"/>
<path fill-rule="evenodd" clip-rule="evenodd" d="M369.012 46.8V100.8H414.012L369.012 46.8Z" fill="url(#paint1_linear_2512_1268)"/>
<path fill-rule="evenodd" clip-rule="evenodd" d="M324.012 100.8H369.012V46.8L324.012 100.8Z" fill="white"/>
<path fill-rule="evenodd" clip-rule="evenodd" d="M346.8 129.6C358.824 138.636 373.8 144 390 144C406.2 144 421.176 138.636 433.2 129.6H346.8Z" fill="#FF2D55"/>
<path fill-rule="evenodd" clip-rule="evenodd" d="M332.4 115.2C336.504 120.636 341.364 125.496 346.8 129.6H433.2C438.636 125.496 443.496 120.636 447.6 115.2H332.4Z" fill="#FC9965"/>
<path fill-rule="evenodd" clip-rule="evenodd" d="M414.588 100.8H324.012C326.244 105.948 329.088 110.772 332.4 115.2H414.624V100.8H414.588Z" fill="#FFBC5B"/>
<path fill-rule="evenodd" clip-rule="evenodd" d="M414.588 75.6V115.2H447.6L414.588 75.6Z" fill="url(#paint2_linear_2512_1268)"/>
<path fill-rule="evenodd" clip-rule="evenodd" d="M381.612 115.2H414.588V75.6L381.612 115.2Z" fill="white"/>
<path fill-rule="evenodd" clip-rule="evenodd" d="M414.588 64.8C424.529 64.8 432.588 56.7411 432.588 46.8C432.588 36.8589 424.529 28.8 414.588 28.8C404.647 28.8 396.588 36.8589 396.588 46.8C396.588 56.7411 404.647 64.8 414.588 64.8Z" fill="#FFC95B"/>
<path fill-rule="evenodd" clip-rule="evenodd" d="M369.012 36C373.983 36 378.012 31.9706 378.012 27C378.012 22.0294 373.983 18 369.012 18C364.041 18 360.012 22.0294 360.012 27C360.012 31.9706 364.041 36 369.012 36Z" fill="#FFC95B"/>
<path d="M4.25879 194.784V184.182H59.9633V194.784H38.3838V254H25.8383V194.784H4.25879ZM65.019 254V201.636H76.9849V210.364H77.5304C78.4849 207.341 80.1213 205.011 82.4395 203.375C84.7804 201.716 87.4508 200.886 90.4508 200.886C91.1327 200.886 91.894 200.92 92.7349 200.989C93.5986 201.034 94.3145 201.114 94.8827 201.227V212.58C94.3599 212.398 93.5304 212.239 92.394 212.102C91.2804 211.943 90.2008 211.864 89.1554 211.864C86.9054 211.864 84.8827 212.352 83.0872 213.33C81.3145 214.284 79.9167 215.614 78.894 217.318C77.8713 219.023 77.3599 220.989 77.3599 223.216V254H65.019ZM117.512 255.057C114.194 255.057 111.205 254.466 108.546 253.284C105.91 252.08 103.819 250.307 102.274 247.966C100.751 245.625 99.9895 242.739 99.9895 239.307C99.9895 236.352 100.535 233.909 101.626 231.977C102.717 230.045 104.205 228.5 106.092 227.341C107.978 226.182 110.103 225.307 112.467 224.716C114.853 224.102 117.319 223.659 119.864 223.386C122.933 223.068 125.421 222.784 127.33 222.534C129.239 222.261 130.626 221.852 131.489 221.307C132.376 220.739 132.819 219.864 132.819 218.682V218.477C132.819 215.909 132.058 213.92 130.535 212.511C129.012 211.102 126.819 210.398 123.955 210.398C120.933 210.398 118.535 211.057 116.762 212.375C115.012 213.693 113.83 215.25 113.217 217.045L101.694 215.409C102.603 212.227 104.103 209.568 106.194 207.432C108.285 205.273 110.842 203.659 113.864 202.591C116.887 201.5 120.228 200.955 123.887 200.955C126.41 200.955 128.921 201.25 131.421 201.841C133.921 202.432 136.205 203.409 138.274 204.773C140.342 206.114 142.001 207.943 143.251 210.261C144.524 212.58 145.16 215.477 145.16 218.955V254H133.296V246.807H132.887C132.137 248.261 131.08 249.625 129.717 250.898C128.376 252.148 126.683 253.159 124.637 253.932C122.614 254.682 120.239 255.057 117.512 255.057ZM120.717 245.989C123.194 245.989 125.342 245.5 127.16 244.523C128.978 243.523 130.376 242.205 131.353 240.568C132.353 238.932 132.853 237.148 132.853 235.216V229.045C132.467 229.364 131.808 229.659 130.876 229.932C129.967 230.205 128.944 230.443 127.808 230.648C126.671 230.852 125.546 231.034 124.433 231.193C123.319 231.352 122.353 231.489 121.535 231.602C119.694 231.852 118.046 232.261 116.592 232.83C115.137 233.398 113.989 234.193 113.149 235.216C112.308 236.216 111.887 237.511 111.887 239.102C111.887 241.375 112.717 243.091 114.376 244.25C116.035 245.409 118.149 245.989 120.717 245.989ZM170.21 223.318V254H157.869V201.636H169.664V210.534H170.278C171.483 207.602 173.403 205.273 176.039 203.545C178.699 201.818 181.983 200.955 185.892 200.955C189.505 200.955 192.653 201.727 195.335 203.273C198.039 204.818 200.13 207.057 201.608 209.989C203.108 212.92 203.846 216.477 203.824 220.659V254H191.483V222.568C191.483 219.068 190.574 216.33 188.755 214.352C186.96 212.375 184.471 211.386 181.289 211.386C179.13 211.386 177.21 211.864 175.528 212.818C173.869 213.75 172.562 215.102 171.608 216.875C170.676 218.648 170.21 220.795 170.21 223.318ZM258.055 215.477L246.805 216.705C246.487 215.568 245.93 214.5 245.135 213.5C244.362 212.5 243.317 211.693 241.999 211.08C240.68 210.466 239.067 210.159 237.158 210.159C234.589 210.159 232.43 210.716 230.68 211.83C228.953 212.943 228.101 214.386 228.124 216.159C228.101 217.682 228.658 218.92 229.794 219.875C230.953 220.83 232.862 221.614 235.521 222.227L244.453 224.136C249.408 225.205 253.089 226.898 255.499 229.216C257.93 231.534 259.158 234.568 259.18 238.318C259.158 241.614 258.192 244.523 256.283 247.045C254.396 249.545 251.771 251.5 248.408 252.909C245.044 254.318 241.18 255.023 236.817 255.023C230.408 255.023 225.249 253.682 221.339 251C217.43 248.295 215.101 244.534 214.351 239.716L226.385 238.557C226.93 240.92 228.089 242.705 229.862 243.909C231.635 245.114 233.942 245.716 236.783 245.716C239.714 245.716 242.067 245.114 243.839 243.909C245.635 242.705 246.533 241.216 246.533 239.443C246.533 237.943 245.953 236.705 244.794 235.727C243.658 234.75 241.885 234 239.476 233.477L230.544 231.602C225.521 230.557 221.805 228.795 219.396 226.318C216.987 223.818 215.794 220.659 215.817 216.841C215.794 213.614 216.669 210.818 218.442 208.455C220.237 206.068 222.726 204.227 225.908 202.932C229.112 201.614 232.805 200.955 236.987 200.955C243.124 200.955 247.953 202.261 251.476 204.875C255.021 207.489 257.214 211.023 258.055 215.477ZM269.657 273.636V201.636H281.793V210.295H282.509C283.145 209.023 284.043 207.67 285.202 206.239C286.361 204.784 287.929 203.545 289.907 202.523C291.884 201.477 294.407 200.955 297.475 200.955C301.52 200.955 305.168 201.989 308.418 204.057C311.691 206.102 314.282 209.136 316.191 213.159C318.122 217.159 319.088 222.068 319.088 227.886C319.088 233.636 318.145 238.523 316.259 242.545C314.372 246.568 311.804 249.636 308.554 251.75C305.304 253.864 301.622 254.92 297.509 254.92C294.509 254.92 292.02 254.42 290.043 253.42C288.066 252.42 286.475 251.216 285.27 249.807C284.088 248.375 283.168 247.023 282.509 245.75H281.997V273.636H269.657ZM281.759 227.818C281.759 231.205 282.236 234.17 283.191 236.716C284.168 239.261 285.566 241.25 287.384 242.682C289.225 244.091 291.452 244.795 294.066 244.795C296.793 244.795 299.077 244.068 300.918 242.614C302.759 241.136 304.145 239.125 305.077 236.58C306.032 234.011 306.509 231.091 306.509 227.818C306.509 224.568 306.043 221.682 305.111 219.159C304.179 216.636 302.793 214.659 300.952 213.227C299.111 211.795 296.816 211.08 294.066 211.08C291.429 211.08 289.191 211.773 287.35 213.159C285.509 214.545 284.111 216.489 283.157 218.989C282.225 221.489 281.759 224.432 281.759 227.818ZM345.025 255.057C341.707 255.057 338.718 254.466 336.059 253.284C333.422 252.08 331.332 250.307 329.786 247.966C328.263 245.625 327.502 242.739 327.502 239.307C327.502 236.352 328.047 233.909 329.138 231.977C330.229 230.045 331.718 228.5 333.604 227.341C335.491 226.182 337.616 225.307 339.979 224.716C342.366 224.102 344.832 223.659 347.377 223.386C350.445 223.068 352.934 222.784 354.843 222.534C356.752 222.261 358.138 221.852 359.002 221.307C359.888 220.739 360.332 219.864 360.332 218.682V218.477C360.332 215.909 359.57 213.92 358.047 212.511C356.525 211.102 354.332 210.398 351.468 210.398C348.445 210.398 346.047 211.057 344.275 212.375C342.525 213.693 341.343 215.25 340.729 217.045L329.207 215.409C330.116 212.227 331.616 209.568 333.707 207.432C335.797 205.273 338.354 203.659 341.377 202.591C344.4 201.5 347.741 200.955 351.4 200.955C353.922 200.955 356.434 201.25 358.934 201.841C361.434 202.432 363.718 203.409 365.786 204.773C367.854 206.114 369.513 207.943 370.763 210.261C372.036 212.58 372.672 215.477 372.672 218.955V254H360.809V246.807H360.4C359.65 248.261 358.593 249.625 357.229 250.898C355.888 252.148 354.195 253.159 352.15 253.932C350.127 254.682 347.752 255.057 345.025 255.057ZM348.229 245.989C350.707 245.989 352.854 245.5 354.672 244.523C356.491 243.523 357.888 242.205 358.866 240.568C359.866 238.932 360.366 237.148 360.366 235.216V229.045C359.979 229.364 359.32 229.659 358.388 229.932C357.479 230.205 356.457 230.443 355.32 230.648C354.184 230.852 353.059 231.034 351.945 231.193C350.832 231.352 349.866 231.489 349.047 231.602C347.207 231.852 345.559 232.261 344.104 232.83C342.65 233.398 341.502 234.193 340.661 235.216C339.82 236.216 339.4 237.511 339.4 239.102C339.4 241.375 340.229 243.091 341.888 244.25C343.547 245.409 345.661 245.989 348.229 245.989ZM385.382 254V201.636H397.347V210.364H397.893C398.847 207.341 400.484 205.011 402.802 203.375C405.143 201.716 407.813 200.886 410.813 200.886C411.495 200.886 412.257 200.92 413.097 200.989C413.961 201.034 414.677 201.114 415.245 201.227V212.58C414.722 212.398 413.893 212.239 412.757 212.102C411.643 211.943 410.563 211.864 409.518 211.864C407.268 211.864 405.245 212.352 403.45 213.33C401.677 214.284 400.279 215.614 399.257 217.318C398.234 219.023 397.722 220.989 397.722 223.216V254H385.382ZM444.77 255.023C439.52 255.023 434.985 253.932 431.167 251.75C427.372 249.545 424.451 246.432 422.406 242.409C420.36 238.364 419.338 233.602 419.338 228.125C419.338 222.739 420.36 218.011 422.406 213.943C424.474 209.852 427.36 206.67 431.065 204.398C434.77 202.102 439.122 200.955 444.122 200.955C447.349 200.955 450.395 201.477 453.258 202.523C456.145 203.545 458.69 205.136 460.895 207.295C463.122 209.455 464.872 212.205 466.145 215.545C467.417 218.864 468.054 222.818 468.054 227.409V231.193H425.133V222.875H456.224C456.201 220.511 455.69 218.409 454.69 216.568C453.69 214.705 452.292 213.239 450.497 212.17C448.724 211.102 446.656 210.568 444.292 210.568C441.77 210.568 439.554 211.182 437.645 212.409C435.735 213.614 434.247 215.205 433.179 217.182C432.133 219.136 431.599 221.284 431.576 223.625V230.886C431.576 233.932 432.133 236.545 433.247 238.727C434.36 240.886 435.917 242.545 437.917 243.705C439.917 244.841 442.258 245.409 444.94 245.409C446.735 245.409 448.36 245.159 449.815 244.659C451.27 244.136 452.531 243.375 453.599 242.375C454.667 241.375 455.474 240.136 456.02 238.659L467.542 239.955C466.815 243 465.429 245.659 463.383 247.932C461.36 250.182 458.77 251.932 455.61 253.182C452.451 254.409 448.838 255.023 444.77 255.023ZM491.135 223.318V254H478.794V201.636H490.589V210.534H491.203C492.408 207.602 494.328 205.273 496.964 203.545C499.624 201.818 502.908 200.955 506.817 200.955C510.43 200.955 513.578 201.727 516.26 203.273C518.964 204.818 521.055 207.057 522.533 209.989C524.033 212.92 524.771 216.477 524.749 220.659V254H512.408V222.568C512.408 219.068 511.499 216.33 509.68 214.352C507.885 212.375 505.396 211.386 502.214 211.386C500.055 211.386 498.135 211.864 496.453 212.818C494.794 213.75 493.487 215.102 492.533 216.875C491.601 218.648 491.135 220.795 491.135 223.318ZM560.435 255.023C555.208 255.023 550.719 253.875 546.969 251.58C543.242 249.284 540.367 246.114 538.344 242.068C536.344 238 535.344 233.318 535.344 228.023C535.344 222.705 536.367 218.011 538.412 213.943C540.458 209.852 543.344 206.67 547.071 204.398C550.821 202.102 555.253 200.955 560.367 200.955C564.617 200.955 568.378 201.739 571.651 203.307C574.946 204.852 577.571 207.045 579.526 209.886C581.48 212.705 582.594 216 582.867 219.773H571.071C570.594 217.25 569.458 215.148 567.662 213.466C565.889 211.761 563.514 210.909 560.537 210.909C558.014 210.909 555.799 211.591 553.889 212.955C551.98 214.295 550.492 216.227 549.424 218.75C548.378 221.273 547.855 224.295 547.855 227.818C547.855 231.386 548.378 234.455 549.424 237.023C550.469 239.568 551.935 241.534 553.821 242.92C555.73 244.284 557.969 244.966 560.537 244.966C562.355 244.966 563.98 244.625 565.412 243.943C566.867 243.239 568.083 242.227 569.06 240.909C570.037 239.591 570.708 237.989 571.071 236.102H582.867C582.571 239.807 581.48 243.091 579.594 245.955C577.708 248.795 575.139 251.023 571.889 252.636C568.639 254.227 564.821 255.023 560.435 255.023ZM600.971 273.636C599.289 273.636 597.732 273.5 596.3 273.227C594.891 272.977 593.766 272.682 592.925 272.341L595.789 262.727C597.584 263.25 599.187 263.5 600.596 263.477C602.005 263.455 603.243 263.011 604.312 262.148C605.403 261.307 606.323 259.898 607.073 257.92L608.13 255.091L589.141 201.636H602.232L614.3 241.182H614.846L626.948 201.636H640.073L619.107 260.341C618.13 263.114 616.834 265.489 615.221 267.466C613.607 269.466 611.63 270.989 609.289 272.034C606.971 273.102 604.198 273.636 600.971 273.636ZM711.845 219.091C711.845 226.614 710.435 233.057 707.617 238.42C704.822 243.761 701.004 247.852 696.163 250.693C691.345 253.534 685.879 254.955 679.765 254.955C673.651 254.955 668.174 253.534 663.333 250.693C658.515 247.83 654.697 243.727 651.879 238.386C649.083 233.023 647.685 226.591 647.685 219.091C647.685 211.568 649.083 205.136 651.879 199.795C654.697 194.432 658.515 190.33 663.333 187.489C668.174 184.648 673.651 183.227 679.765 183.227C685.879 183.227 691.345 184.648 696.163 187.489C701.004 190.33 704.822 194.432 707.617 199.795C710.435 205.136 711.845 211.568 711.845 219.091ZM699.129 219.091C699.129 213.795 698.299 209.33 696.64 205.693C695.004 202.034 692.731 199.273 689.822 197.409C686.913 195.523 683.56 194.58 679.765 194.58C675.97 194.58 672.617 195.523 669.708 197.409C666.799 199.273 664.515 202.034 662.856 205.693C661.22 209.33 660.401 213.795 660.401 219.091C660.401 224.386 661.22 228.864 662.856 232.523C664.515 236.159 666.799 238.92 669.708 240.807C672.617 242.67 675.97 243.602 679.765 243.602C683.56 243.602 686.913 242.67 689.822 240.807C692.731 238.92 695.004 236.159 696.64 232.523C698.299 228.864 699.129 224.386 699.129 219.091ZM762.045 203.375C761.727 200.398 760.386 198.08 758.022 196.42C755.682 194.761 752.636 193.932 748.886 193.932C746.25 193.932 743.988 194.33 742.102 195.125C740.216 195.92 738.772 197 737.772 198.364C736.772 199.727 736.261 201.284 736.238 203.034C736.238 204.489 736.568 205.75 737.227 206.818C737.909 207.886 738.829 208.795 739.988 209.545C741.147 210.273 742.432 210.886 743.841 211.386C745.25 211.886 746.67 212.307 748.102 212.648L754.647 214.284C757.284 214.898 759.818 215.727 762.25 216.773C764.704 217.818 766.897 219.136 768.829 220.727C770.784 222.318 772.329 224.239 773.466 226.489C774.602 228.739 775.17 231.375 775.17 234.398C775.17 238.489 774.125 242.091 772.034 245.205C769.943 248.295 766.92 250.716 762.966 252.466C759.034 254.193 754.272 255.057 748.682 255.057C743.25 255.057 738.534 254.216 734.534 252.534C730.557 250.852 727.443 248.398 725.193 245.17C722.966 241.943 721.761 238.011 721.579 233.375H734.022C734.204 235.807 734.954 237.83 736.272 239.443C737.591 241.057 739.307 242.261 741.42 243.057C743.557 243.852 745.943 244.25 748.579 244.25C751.329 244.25 753.738 243.841 755.807 243.023C757.897 242.182 759.534 241.023 760.716 239.545C761.897 238.045 762.5 236.295 762.522 234.295C762.5 232.477 761.966 230.977 760.92 229.795C759.875 228.591 758.409 227.591 756.522 226.795C754.659 225.977 752.477 225.25 749.977 224.614L742.034 222.568C736.284 221.091 731.738 218.852 728.397 215.852C725.079 212.83 723.42 208.818 723.42 203.818C723.42 199.705 724.534 196.102 726.761 193.011C729.011 189.92 732.068 187.523 735.932 185.818C739.795 184.091 744.17 183.227 749.057 183.227C754.011 183.227 758.352 184.091 762.079 185.818C765.829 187.523 768.772 189.898 770.909 192.943C773.045 195.966 774.147 199.443 774.216 203.375H762.045Z" fill="#FF2D55"/>
<defs>
<linearGradient id="paint0_linear_2512_1268" x1="390" y1="-29.8234" x2="288.177" y2="72" gradientUnits="userSpaceOnUse">
<stop stop-color="#FF2D55"/>
<stop offset="1" stop-color="#FFBC5B"/>
</linearGradient>
<linearGradient id="paint1_linear_2512_1268" x1="368.997" y1="46.8" x2="368.997" y2="100.8" gradientUnits="userSpaceOnUse">
<stop stop-color="#A524B3"/>
<stop offset="1" stop-color="#FF2D55"/>
</linearGradient>
<linearGradient id="paint2_linear_2512_1268" x1="414.577" y1="75.6" x2="414.577" y2="115.2" gradientUnits="userSpaceOnUse">
<stop stop-color="#A524B3"/>
<stop offset="1" stop-color="#FF2D55"/>
</linearGradient>
</defs>
</svg>
